<svg width="91" height="90" viewBox="0 0 91 90" fill="none" xmlns="http://www.w3.org/2000/svg">
<path d="M88.2169 44.5C88.2169 67.9721 69.189 87 45.7169 87C22.2448 87 3.2169 67.9721 3.2169 44.5C3.2169 21.0279 22.2448 2 45.7169 2C69.189 2 88.2169 21.0279 88.2169 44.5Z" fill="#928CB2"/>
<path d="M2.63212 14.3403C2.28301 12.1589 3.76836 10.1075 5.94974 9.75843L47.422 3.12117C49.6034 2.77206 51.6547 4.25741 52.0038 6.43879L61.8017 67.6597C62.1508 69.8411 60.6655 71.8925 58.4841 72.2416L17.0118 78.8788C14.8305 79.2279 12.7791 77.7426 12.43 75.5612L2.63212 14.3403Z" fill="#4B4682"/>
<path d="M5.75245 14.8536C5.5779 13.7629 6.32057 12.7373 7.41126 12.5627L46.9086 6.2415C47.9993 6.06695 49.025 6.80962 49.1996 7.90031L58.6814 67.1464C58.8559 68.2371 58.1132 69.2627 57.0226 69.4373L17.5252 75.7585C16.4345 75.9331 15.4088 75.1904 15.2343 74.0997L5.75245 14.8536Z" fill="#EFE2D0"/>
<path d="M11.1029 14.2789C11.6282 14.1948 12.1046 14.1894 12.5323 14.2628C12.9584 14.3269 13.3328 14.4513 13.6554 14.636C13.9779 14.8207 14.238 15.0579 14.4356 15.3476C14.6332 15.6374 14.7608 15.962 14.8183 16.3214C14.9732 17.2891 14.5723 18.2984 13.6157 19.3495L12.0371 21.0908L15.3549 20.5599C15.4264 20.6524 15.4977 20.7733 15.5689 20.9226C15.6493 21.0704 15.7042 21.2365 15.7337 21.4208C15.7868 21.7526 15.7514 22.004 15.6275 22.1751C15.5022 22.3369 15.3197 22.437 15.0801 22.4754L10.2832 23.2431C10.0583 23.1373 9.86898 22.988 9.71525 22.7952C9.56926 22.5917 9.47266 22.3425 9.42547 22.0476C9.37532 21.7342 9.39779 21.4613 9.4929 21.2286C9.58652 20.9868 9.70135 20.7888 9.83737 20.6347L11.484 18.6982C11.6912 18.4571 11.8606 18.2457 11.9922 18.0639C12.1223 17.8729 12.2231 17.7056 12.2946 17.5618C12.3754 17.4166 12.4253 17.2857 12.4445 17.1692C12.4729 17.0512 12.4789 16.9415 12.4627 16.8402C12.4214 16.5821 12.2738 16.3978 12.0198 16.2872C11.775 16.1752 11.4867 16.1457 11.1549 16.1988C10.7863 16.2578 10.4641 16.3708 10.1883 16.5378C9.92034 16.6941 9.6999 16.8523 9.52701 17.0123C9.35264 16.9267 9.20149 16.8092 9.07356 16.6595C8.94564 16.5098 8.86398 16.3244 8.82858 16.1032C8.75188 15.624 8.92089 15.233 9.3356 14.9303C9.74884 14.6185 10.3379 14.4013 11.1029 14.2789Z" fill="#4D4884"/>
<path d="M16.9341 27.7781C17.0603 28.7883 16.3479 29.7089 15.3103 29.875C14.9714 29.9288 14.6252 29.8976 14.3067 29.7844C14.2025 29.7477 14.1022 29.702 14.0073 29.6478C14.1552 30.2856 14.4707 31.1222 15.1347 31.5812L12.9211 31.9354C13.4084 31.2902 13.449 30.3966 13.3905 29.7446C13.3166 29.8264 13.2351 29.9019 13.147 29.97C12.8797 30.1769 12.5605 30.3147 12.2218 30.3693C11.1862 30.535 10.22 29.883 10.0247 28.8839C9.92583 28.3835 10.015 27.8452 10.2902 27.2831C10.5075 26.842 12.7636 23.8588 12.7636 23.8588C12.7636 23.8588 15.8381 25.9889 16.1822 26.3401C16.6191 26.7883 16.8718 27.2719 16.9341 27.7781Z" fill="#231F20"/>
<path d="M41.3094 40.8844C41.6225 43.4103 39.7817 45.7215 37.1135 46.1485C36.2422 46.2869 35.3529 46.2126 34.5356 45.933C34.2682 45.8424 34.0112 45.7291 33.7678 45.5946C34.1409 47.1885 34.9422 49.278 36.6432 50.4189L30.9512 51.3298C32.2105 49.7103 32.3248 47.4741 32.1819 45.8435C31.9911 46.0491 31.7808 46.2388 31.5536 46.4103C30.8643 46.9309 30.0427 47.2791 29.1717 47.4195C26.5087 47.8457 24.0333 46.2253 23.5424 43.7278C23.294 42.4772 23.5291 41.1295 24.2425 39.72C24.8059 38.614 30.6366 31.1257 30.6366 31.1257C30.6366 31.1257 38.5131 36.4203 39.3936 37.2952C40.5112 38.4116 41.1551 39.6186 41.3094 40.8844Z" fill="#231F20"/>
<path d="M40.5328 11.9048C41.012 9.74822 43.1487 8.38845 45.3052 8.86763L86.3053 17.9777C88.4618 18.4569 89.8216 20.5936 89.3424 22.7501L75.8941 83.2741C75.415 85.4306 73.2783 86.7904 71.1217 86.3112L30.1217 77.2011C27.9651 76.7219 26.6054 74.5852 27.0845 72.4287L40.5328 11.9048Z" fill="#4B4682"/>
<path d="M43.2445 13.5317C43.4841 12.4534 44.5524 11.7735 45.6307 12.0131L84.6784 20.6894C85.7566 20.929 86.4365 21.9973 86.1969 23.0756L73.1825 81.6471C72.9429 82.7254 71.8745 83.4053 70.7963 83.1657L31.7486 74.4894C30.6703 74.2498 29.9904 73.1815 30.23 72.1032L43.2445 13.5317Z" fill="#EFE2D0"/>
<path d="M48.4302 14.9687C48.9496 15.0841 49.3945 15.2547 49.765 15.4804C50.1376 15.6971 50.4398 15.9507 50.6716 16.2412C50.9034 16.5317 51.0578 16.8481 51.1348 17.1902C51.2117 17.5324 51.2107 17.8812 51.1317 18.2365C50.9192 19.1932 50.1746 19.9838 48.8981 20.6085L46.7889 21.6457L50.0689 22.3745C50.1013 22.4868 50.123 22.6255 50.1342 22.7905C50.1544 22.9576 50.1443 23.1322 50.1038 23.3144C50.0309 23.6424 49.9054 23.8631 49.7273 23.9765C49.5511 24.0808 49.3446 24.1066 49.1077 24.054L44.3654 23.0002C44.1953 22.819 44.0743 22.6105 44.0024 22.3746C43.9417 22.1317 43.9437 21.8644 44.0085 21.5728C44.0773 21.2631 44.1988 21.0176 44.3729 20.8364C44.549 20.646 44.7287 20.5043 44.912 20.4112L47.1563 19.2176C47.4377 19.0697 47.6731 18.9356 47.8624 18.8151C48.0537 18.6855 48.2091 18.5671 48.3286 18.4598C48.4571 18.3545 48.5518 18.2512 48.6125 18.15C48.6824 18.0508 48.7284 17.9511 48.7507 17.8509C48.8074 17.5957 48.738 17.37 48.5427 17.1736C48.3564 16.9792 48.0992 16.8456 47.7712 16.7727C47.4068 16.6918 47.0656 16.6781 46.7478 16.7318C46.441 16.7783 46.1778 16.8441 45.9581 16.9292C45.8275 16.7854 45.7304 16.6204 45.6666 16.4342C45.6028 16.2479 45.5952 16.0454 45.6438 15.8268C45.7491 15.353 46.0502 15.0518 46.5473 14.9232C47.0464 14.7855 47.674 14.8007 48.4302 14.9687Z" fill="#4D4884"/>
<path d="M67.9967 80.2101C67.4774 80.0947 67.0325 79.9241 66.6619 79.6984C66.2894 79.4818 65.9872 79.2282 65.7554 78.9376C65.5235 78.6471 65.3691 78.3308 65.2922 77.9886C65.2153 77.6464 65.2163 77.2977 65.2952 76.9423C65.5078 75.9857 66.2523 75.195 67.5289 74.5704L69.6381 73.5332L66.3581 72.8044C66.3257 72.692 66.3039 72.5533 66.2928 72.3883C66.2725 72.2212 66.2826 72.0466 66.3231 71.8644C66.396 71.5364 66.5215 71.3157 66.6997 71.2023C66.8758 71.098 67.0824 71.0722 67.3193 71.1249L72.0616 72.1786C72.2317 72.3598 72.3526 72.5683 72.4245 72.8042C72.4853 73.0472 72.4833 73.3144 72.4185 73.606C72.3496 73.9158 72.2282 74.1613 72.0541 74.3425C71.8779 74.5328 71.6982 74.6745 71.515 74.7677L69.2707 75.9613C68.9892 76.1091 68.7539 76.2432 68.5646 76.3637C68.3732 76.4933 68.2178 76.6117 68.0984 76.719C67.9698 76.8243 67.8752 76.9276 67.8144 77.0288C67.7446 77.128 67.6985 77.2278 67.6762 77.328C67.6196 77.5831 67.6889 77.8088 67.8843 78.0052C68.0706 78.1996 68.3277 78.3332 68.6557 78.4061C69.0202 78.4871 69.3613 78.5007 69.6792 78.4471C69.9859 78.4005 70.2491 78.3347 70.4688 78.2496C70.5994 78.3934 70.6966 78.5584 70.7604 78.7447C70.8242 78.9309 70.8318 79.1334 70.7832 79.3521C70.6779 79.8259 70.3767 80.127 69.8797 80.2556C69.3806 80.3933 68.7529 80.3781 67.9967 80.2101Z" fill="#4D4884"/>
<path d="M48.9185 29.4879C48.7165 30.3974 47.8062 30.9692 46.8861 30.7648C46.2623 30.6262 45.7927 30.1652 45.6194 29.599C45.6198 29.5913 45.6212 29.5851 45.6225 29.5789C45.6195 29.5797 45.6163 29.5799 45.6132 29.5794C45.6156 29.5865 45.617 29.592 45.6194 29.599C45.498 30.2813 45.4351 31.302 45.9078 32.0503L43.7275 31.5658C44.474 31.0872 44.8515 30.1324 45.0304 29.4629C45.0422 29.4512 45.053 29.4381 45.0638 29.4249C45.0568 29.4208 45.0496 29.4179 45.0426 29.4138C45.0391 29.4298 45.0355 29.4459 45.0304 29.4629C44.6343 29.9053 44.0119 30.1261 43.3856 29.987C42.4655 29.7825 41.8831 28.879 42.0852 27.9695C42.2873 27.0601 43.1975 26.4882 44.1176 26.6927C44.2664 26.7257 44.4058 26.7774 44.5354 26.8438C44.3793 26.5187 44.328 26.1416 44.412 25.7635C44.6141 24.854 45.5243 24.2821 46.4445 24.4866C47.3646 24.691 47.947 25.5946 47.7449 26.504C47.6609 26.8822 47.4547 27.202 47.1757 27.4305C47.3242 27.4249 47.4729 27.4383 47.6181 27.4704C48.5382 27.6749 49.1206 28.5784 48.9185 29.4879Z" fill="#231F20"/>
<path d="M67.5084 65.6909C67.7105 64.7815 68.6207 64.2096 69.5408 64.414C70.1647 64.5527 70.6342 65.0136 70.8075 65.5798C70.8072 65.5875 70.8058 65.5937 70.8044 65.5999C70.8074 65.5991 70.8106 65.5989 70.8137 65.5994C70.8113 65.5924 70.8099 65.5868 70.8075 65.5798C70.929 64.8975 70.9918 63.8768 70.5192 63.1286L72.6994 63.613C71.9529 64.0916 71.5755 65.0464 71.3965 65.7159C71.3848 65.7276 71.3739 65.7407 71.3632 65.7539C71.3702 65.758 71.3774 65.7609 71.3843 65.7651C71.3879 65.749 71.3915 65.7329 71.3965 65.7159C71.7926 65.2736 72.415 65.0527 73.0413 65.1918C73.9614 65.3963 74.5438 66.2998 74.3418 67.2093C74.1397 68.1188 73.2294 68.6906 72.3093 68.4862C72.1605 68.4531 72.0212 68.4014 71.8916 68.335C72.0476 68.6601 72.099 69.0372 72.0149 69.4153C71.8128 70.3248 70.9026 70.8967 69.9825 70.6922C69.0624 70.4878 68.48 69.5843 68.6821 68.6748C68.7661 68.2966 68.9723 67.9768 69.2513 67.7483C69.1028 67.754 68.9541 67.7405 68.8089 67.7084C67.8887 67.5039 67.3063 66.6004 67.5084 65.6909Z" fill="#231F20"/>
<path d="M66.1068 51.2527C65.6016 53.5264 63.326 54.956 61.0257 54.4449C59.4662 54.0984 58.2923 52.9461 57.859 51.5305C57.8599 51.5112 57.8634 51.4957 57.8668 51.4803C57.8592 51.4823 57.8513 51.4827 57.8436 51.4816C57.8495 51.4991 57.853 51.5129 57.859 51.5305C57.5554 53.2363 57.3983 55.7881 58.5799 57.6586L53.1293 56.4475C54.9955 55.251 55.9392 52.8641 56.3865 51.1902C56.4159 51.1611 56.443 51.1282 56.4699 51.0953C56.4524 51.085 56.4345 51.0777 56.417 51.0674C56.4081 51.1076 56.3992 51.1477 56.3865 51.1902C55.3963 52.2961 53.8403 52.8483 52.2746 52.5004C49.9743 51.9893 48.5182 49.7305 49.0234 47.4568C49.5286 45.1832 51.8043 43.7535 54.1045 44.2646C54.4765 44.3473 54.8249 44.4766 55.1488 44.6425C54.7588 43.8297 54.6304 42.887 54.8405 41.9417C55.3457 39.668 57.6213 38.2383 59.9216 38.7495C62.2219 39.2606 63.6779 41.5194 63.1727 43.7931C62.9626 44.7384 62.4472 45.5381 61.7496 46.1092C62.1209 46.0951 62.4927 46.1287 62.8557 46.2091C65.156 46.7202 66.612 48.979 66.1068 51.2527Z" fill="#231F20"/>
</svg>
